<?xml version="1.0" encoding="UTF-8"?>
<svg id="Layer_1" xmlns="http://www.w3.org/2000/svg" viewBox="0 0 200 200">
  <defs>
    <style>
      .cls-1 {
        fill: #e5e5e5;
      }

      .cls-2 {
        fill: #505050;
      }
    </style>
  </defs>
  <rect class="cls-1" x="19.7" y="136.08" width="160.6" height="43.26" rx="13.76" ry="13.76"/>
  <path class="cls-2" d="M142.65,107.89l-3.41-3.41c-1.31-1.31-3.43-1.31-4.73,0l-23.04,23.04c-2.11,2.11-5.72.62-5.72-2.37V39.55c0-1.85-1.5-3.35-3.35-3.35h-4.82c-1.85,0-3.35,1.5-3.35,3.35v85.6c0,2.98-3.61,4.48-5.72,2.37l-23.04-23.04c-1.31-1.31-3.43-1.31-4.73,0l-3.41,3.41c-1.31,1.31-1.31,3.43,0,4.73l40.29,40.29c1.31,1.31,3.43,1.31,4.73,0l5.78-5.78h0s34.51-34.51,34.51-34.51c1.31-1.31,1.31-3.43,0-4.73Z"/>
</svg>