<?xml version="1.0" encoding="UTF-8"?>
<svg id="Layer_1" xmlns="http://www.w3.org/2000/svg" viewBox="0 0 200 200">
  <defs>
    <style>
      .cls-1 {
        fill: #f4f4f4;
      }

      .cls-2 {
        fill: #dc505f;
      }

      .cls-3 {
        fill: #fff;
        stroke: #4a5159;
        stroke-miterlimit: 10;
        stroke-width: 7px;
      }
    </style>
  </defs>
  <rect class="cls-1" x="3.2" y="3.2" width="193.6" height="193.6" rx="15.9" ry="15.9"/>
  <path class="cls-3" d="M159.42,119.66c0-1.98-1.35-3.76-3.29-4.17-7.17-1.51-12.55-7.88-12.55-15.49s5.38-13.98,12.55-15.49c1.94-.41,3.29-2.18,3.29-4.17v-19.08c0-2.37-1.92-4.29-4.29-4.29H44.87c-2.37,0-4.29,1.92-4.29,4.29v19.08c0,1.98,1.35,3.76,3.29,4.17,7.17,1.51,12.55,7.88,12.55,15.49s-5.38,13.98-12.55,15.49c-1.94.41-3.29,2.18-3.29,4.17v19.08c0,2.37,1.92,4.29,4.29,4.29h110.26c2.37,0,4.29-1.92,4.29-4.29v-19.08Z"/>
  <rect class="cls-2" x="89.2" y="89.2" width="21.6" height="21.6" transform="translate(241.42 100) rotate(135)"/>
</svg>